<?xml version="1.0" encoding="UTF-8"?>
<!DOCTYPE svg PUBLIC "-//W3C//DTD SVG 1.1//EN" "http://www.w3.org/Graphics/SVG/1.1/DTD/svg11.dtd">
<svg xmlns="http://www.w3.org/2000/svg" version="1.1" width="32px" height="32px" style="shape-rendering:geometricPrecision; text-rendering:geometricPrecision; image-rendering:optimizeQuality; fill-rule:evenodd; clip-rule:evenodd" xmlns:xlink="http://www.w3.org/1999/xlink">
<g><path style="opacity:0.911" fill="#c8d2d9" d="M 8.5,-0.5 C 13.1667,-0.5 17.8333,-0.5 22.5,-0.5C 24.2503,0.659375 25.2503,2.32604 25.5,4.5C 24.8333,4.83333 24.1667,5.16667 23.5,5.5C 20.9831,4.02695 18.1498,3.36029 15,3.5C 12.1345,3.29989 9.63446,3.96656 7.5,5.5C 6.83333,5.16667 6.16667,4.83333 5.5,4.5C 5.74973,2.32604 6.74973,0.659375 8.5,-0.5 Z"/></g>
<g><path style="opacity:1" fill="#72818a" d="M 23.5,5.5 C 23.5,6.16667 23.5,6.83333 23.5,7.5C 19.6482,7.48868 17.8149,9.48868 18,13.5C 17.5034,11.1902 17.3367,8.85684 17.5,6.5C 16.1667,6.5 14.8333,6.5 13.5,6.5C 13.5,9.16667 13.5,11.8333 13.5,14.5C 12.5386,12.7354 12.2053,10.7354 12.5,8.5C 10.7839,8.37133 9.11723,8.038 7.5,7.5C 7.5,6.83333 7.5,6.16667 7.5,5.5C 9.63446,3.96656 12.1345,3.29989 15,3.5C 18.1498,3.36029 20.9831,4.02695 23.5,5.5 Z"/></g>
<g><path style="opacity:0.799" fill="#64747e" d="M 5.5,5.5 C 5.5,11.1667 5.5,16.8333 5.5,22.5C 4.19522,20.6028 3.52856,18.2695 3.5,15.5C 3.31477,11.8589 3.98143,8.52559 5.5,5.5 Z"/></g>
<g><path style="opacity:0.799" fill="#65747e" d="M 25.5,5.5 C 27.0186,8.52559 27.6852,11.8589 27.5,15.5C 27.4714,18.2695 26.8048,20.6028 25.5,22.5C 25.5,16.8333 25.5,11.1667 25.5,5.5 Z"/></g>
<g><path style="opacity:0.995" fill="#c9d3da" d="M 23.5,7.5 C 24.1667,12.5 24.8333,17.5 25.5,22.5C 25.5,23.1667 25.5,23.8333 25.5,24.5C 24.8141,25.8484 23.8141,27.015 22.5,28C 17.5,28.6667 12.5,28.6667 7.5,28C 6.9152,26.6976 6.24853,25.531 5.5,24.5C 5.5,23.8333 5.5,23.1667 5.5,22.5C 6.16667,17.5 6.83333,12.5 7.5,7.5C 9.11723,8.038 10.7839,8.37133 12.5,8.5C 12.2053,10.7354 12.5386,12.7354 13.5,14.5C 13.5,11.8333 13.5,9.16667 13.5,6.5C 14.8333,6.5 16.1667,6.5 17.5,6.5C 17.3367,8.85684 17.5034,11.1902 18,13.5C 17.8149,9.48868 19.6482,7.48868 23.5,7.5 Z"/></g>
<g><path style="opacity:1" fill="#acb7bf" d="M 5.5,4.5 C 6.16667,4.83333 6.83333,5.16667 7.5,5.5C 7.5,6.16667 7.5,6.83333 7.5,7.5C 6.83333,12.5 6.16667,17.5 5.5,22.5C 5.5,16.8333 5.5,11.1667 5.5,5.5C 5.5,5.16667 5.5,4.83333 5.5,4.5 Z"/></g>
<g><path style="opacity:1" fill="#6e7d87" d="M 13.5,14.5 C 16.285,13.9162 17.9517,14.9162 18.5,17.5C 16.5,17.5 14.5,17.5 12.5,17.5C 12.5569,16.391 12.8902,15.391 13.5,14.5 Z"/></g>
<g><path style="opacity:1" fill="#a9b4bc" d="M 25.5,4.5 C 25.5,4.83333 25.5,5.16667 25.5,5.5C 25.5,11.1667 25.5,16.8333 25.5,22.5C 24.8333,17.5 24.1667,12.5 23.5,7.5C 23.5,6.83333 23.5,6.16667 23.5,5.5C 24.1667,5.16667 24.8333,4.83333 25.5,4.5 Z"/></g>
<g><path style="opacity:1" fill="#929fa8" d="M 12.5,17.5 C 14.5,17.5 16.5,17.5 18.5,17.5C 18.5,18.8333 18.5,20.1667 18.5,21.5C 16.5,21.5 14.5,21.5 12.5,21.5C 12.5,20.1667 12.5,18.8333 12.5,17.5 Z"/></g>
<g><path style="opacity:1" fill="#687781" d="M 12.5,21.5 C 14.5,21.5 16.5,21.5 18.5,21.5C 19.3764,21.3691 20.0431,21.7025 20.5,22.5C 17.1667,23.8333 13.8333,23.8333 10.5,22.5C 10.9569,21.7025 11.6236,21.3691 12.5,21.5 Z"/></g>
<g><path style="opacity:0.859" fill="#697882" d="M 5.5,24.5 C 6.24853,25.531 6.9152,26.6976 7.5,28C 12.5,28.6667 17.5,28.6667 22.5,28C 23.8141,27.015 24.8141,25.8484 25.5,24.5C 27.0342,27.1439 26.7009,29.4772 24.5,31.5C 18.5,31.5 12.5,31.5 6.5,31.5C 4.29911,29.4772 3.96578,27.1439 5.5,24.5 Z"/></g>
</svg>
